<svg xmlns="http://www.w3.org/2000/svg" viewBox="0 0 800 500" fill="none">
  <rect width="800" height="500" rx="12" fill="#0f172a"/>
  <defs>
    <linearGradient id="g1" x1="0" y1="0" x2="1" y2="1">
      <stop offset="0%" stop-color="#3b82f6" stop-opacity="0.2"/>
      <stop offset="100%" stop-color="#8b5cf6" stop-opacity="0.1"/>
    </linearGradient>
  </defs>
  <rect x="40" y="40" width="720" height="420" rx="12" fill="url(#g1)" stroke="#3b82f6" stroke-opacity="0.3" stroke-width="2"/>
  <circle cx="400" cy="180" r="80" fill="#3b82f6" fill-opacity="0.15" stroke="#3b82f6" stroke-opacity="0.4" stroke-width="2"/>
  <path d="M340 200 L400 150 L460 200" stroke="#60a5fa" stroke-width="3" fill="none" stroke-linecap="round" stroke-linejoin="round"/>
  <path d="M380 170 L400 155 L420 170" stroke="#60a5fa" stroke-width="2.5" fill="none" stroke-linecap="round" stroke-linejoin="round"/>
  <rect x="300" y="240" width="200" height="8" rx="4" fill="#3b82f6" fill-opacity="0.3"/>
  <rect x="320" y="260" width="160" height="8" rx="4" fill="#3b82f6" fill-opacity="0.2"/>
  <rect x="340" y="280" width="120" height="8" rx="4" fill="#3b82f6" fill-opacity="0.15"/>
  <rect x="310" y="320" width="180" height="3" rx="1.5" fill="#475569"/>
  <rect x="310" y="340" width="160" height="3" rx="1.5" fill="#475569"/>
  <rect x="310" y="360" width="170" height="3" rx="1.5" fill="#475569"/>
  <rect x="250" y="400" width="100" height="36" rx="8" fill="#3b82f6" fill-opacity="0.2" stroke="#3b82f6" stroke-opacity="0.4" stroke-width="1.5"/>
  <rect x="370" y="400" width="100" height="36" rx="8" fill="#3b82f6" fill-opacity="0.2" stroke="#3b82f6" stroke-opacity="0.4" stroke-width="1.5"/>
  <rect x="490" y="400" width="100" height="36" rx="8" fill="#3b82f6" fill-opacity="0.2" stroke="#3b82f6" stroke-opacity="0.4" stroke-width="1.5"/>
  <text x="300" y="423" fill="#60a5fa" font-family="sans-serif" font-size="12" text-anchor="middle">RESULTADOS</text>
  <text x="420" y="423" fill="#60a5fa" font-family="sans-serif" font-size="12" text-anchor="middle">EQUIPE</text>
  <text x="540" y="423" fill="#60a5fa" font-family="sans-serif" font-size="12" text-anchor="middle">LIDERANÇA</text>
</svg>